{
	"asset": {
		"generator": "Tilt Brush 22.3.bfe37158d",
		"version": "1.1",
		"copyright": "Unknown."
	},
	"buffers": {
		"buffer_sketch": {
			"byteLength": 89920,
			"type": "arraybuffer",
			"uri": "sketch.bin"
		}
	},
	"accessors": {
		"accessor_position_Lofted_d381e0f5-3def-4a0d-8853-31e9200bcbda_0_i0": {
			"bufferView": "vec3BufferView",
			"byteOffset": 0,
			"byteStride": 12,
			"componentType": 5126,
			"count": 400,
			"max": [ -0.0759435371, 1.30037928, -0.62322247 ],
			"min": [ -0.822696507, 0.793164194, -1.00155175 ],
			"type": "VEC3"
		},
		"accessor_normal_Lofted_d381e0f5-3def-4a0d-8853-31e9200bcbda_0_i0": {
			"bufferView": "vec3BufferView",
			"byteOffset": 4800,
			"byteStride": 12,
			"componentType": 5126,
			"count": 400,
			"max": [ 0.845754087, 0.936515331, 0.934692383 ],
			"min": [ -0.845754147, -0.936515331, -0.934692442 ],
			"type": "VEC3"
		},
		"accessor_color_Lofted_d381e0f5-3def-4a0d-8853-31e9200bcbda_0_i0": {
			"bufferView": "vec4BufferView",
			"byteOffset": 0,
			"byteStride": 16,
			"componentType": 5126,
			"count": 400,
			"type": "VEC4"
		},
		"accessor_tangent_Lofted_d381e0f5-3def-4a0d-8853-31e9200bcbda_0_i0": {
			"bufferView": "vec4BufferView",
			"byteOffset": 6400,
			"byteStride": 16,
			"componentType": 5126,
			"count": 400,
			"max": [ 0.906419218, 0.874933243, 0.911977768, 1 ],
			"min": [ -0.906419218, -0.874933183, -0.911977828, 1 ],
			"type": "VEC4"
		},
		"accessor_uv0_Lofted_d381e0f5-3def-4a0d-8853-31e9200bcbda_0_i0": {
			"bufferView": "vec3BufferView",
			"byteOffset": 9600,
			"byteStride": 12,
			"componentType": 5126,
			"count": 400,
			"max": [ 0.978723407, 1, 0.0249999985 ],
			"min": [ 0, 0, 0.00507000647 ],
			"type": "VEC3"
		},
		"accessor_indices_0_Lofted_d381e0f5-3def-4a0d-8853-31e9200bcbda_0_i0": {
			"bufferView": "ushortBufferView",
			"byteOffset": 0,
			"byteStride": 0,
			"componentType": 5123,
			"count": 1152,
			"max": [ 399 ],
			"min": [ 0 ],
			"type": "SCALAR"
		},
		"accessor_position_Petal_e0abbc80-0f80-e854-4970-8924a0863dcc_0_i0": {
			"bufferView": "vec3BufferView",
			"byteOffset": 14400,
			"byteStride": 12,
			"componentType": 5126,
			"count": 540,
			"max": [ 0.32698518, 1.58041406, -0.501735628 ],
			"min": [ -0.558425605, 0.957907975, -1.09798872 ],
			"type": "VEC3"
		},
		"accessor_normal_Petal_e0abbc80-0f80-e854-4970-8924a0863dcc_0_i0": {
			"bufferView": "vec3BufferView",
			"byteOffset": 20880,
			"byteStride": 12,
			"componentType": 5126,
			"count": 540,
			"max": [ 0.78848809, 0.983662546, 0.995572031 ],
			"min": [ -0.744901776, -0.891564369, -0.915465713 ],
			"type": "VEC3"
		},
		"accessor_color_Petal_e0abbc80-0f80-e854-4970-8924a0863dcc_0_i0": {
			"bufferView": "vec4BufferView",
			"byteOffset": 12800,
			"byteStride": 16,
			"componentType": 5126,
			"count": 540,
			"type": "VEC4"
		},
		"accessor_tangent_Petal_e0abbc80-0f80-e854-4970-8924a0863dcc_0_i0": {
			"bufferView": "vec4BufferView",
			"byteOffset": 21440,
			"byteStride": 16,
			"componentType": 5126,
			"count": 540,
			"max": [ 0.744901776, 0.89156425, 0.915465593, 1 ],
			"min": [ -0.78848809, -0.983662605, -0.995572031, 1 ],
			"type": "VEC4"
		},
		"accessor_uv0_Petal_e0abbc80-0f80-e854-4970-8924a0863dcc_0_i0": {
			"bufferView": "vec3BufferView",
			"byteOffset": 27360,
			"byteStride": 12,
			"componentType": 5126,
			"count": 540,
			"max": [ 0.947368443, 1, 0.0500000007 ],
			"min": [ 0, 0, 0.0500000007 ],
			"type": "VEC3"
		},
		"accessor_indices_0_Petal_e0abbc80-0f80-e854-4970-8924a0863dcc_0_i0": {
			"bufferView": "ushortBufferView",
			"byteOffset": 2304,
			"byteStride": 0,
			"componentType": 5123,
			"count": 1530,
			"max": [ 539 ],
			"min": [ 0 ],
			"type": "SCALAR"
		},
		"accessor_position_CoarseBristles_1161af82-50cf-47db-9706-0c3576d43c43_0_i0": {
			"bufferView": "vec3BufferView",
			"byteOffset": 33840,
			"byteStride": 12,
			"componentType": 5126,
			"count": 308,
			"max": [ 0.291116238, 1.49938273, -0.501248479 ],
			"min": [ -0.70844847, 0.871875882, -1.10566688 ],
			"type": "VEC3"
		},
		"accessor_normal_CoarseBristles_1161af82-50cf-47db-9706-0c3576d43c43_0_i0": {
			"bufferView": "vec3BufferView",
			"byteOffset": 37536,
			"byteStride": 12,
			"componentType": 5126,
			"count": 308,
			"max": [ 0.60097909, 0.923786521, 0.971958816 ],
			"min": [ -0.772610724, 0.102919452, -0.786392093 ],
			"type": "VEC3"
		},
		"accessor_color_CoarseBristles_1161af82-50cf-47db-9706-0c3576d43c43_0_i0": {
			"bufferView": "vec4BufferView",
			"byteOffset": 30080,
			"byteStride": 16,
			"componentType": 5126,
			"count": 308,
			"type": "VEC4"
		},
		"accessor_tangent_CoarseBristles_1161af82-50cf-47db-9706-0c3576d43c43_0_i0": {
			"bufferView": "vec4BufferView",
			"byteOffset": 35008,
			"byteStride": 16,
			"componentType": 5126,
			"count": 308,
			"max": [ 0.934798777, 0.817254782, 0.440881312, 1 ],
			"min": [ 0.443323821, -0.232642338, -0.686890364, 1 ],
			"type": "VEC4"
		},
		"accessor_uv0_CoarseBristles_1161af82-50cf-47db-9706-0c3576d43c43_0_i0": {
			"bufferView": "vec2BufferView",
			"byteOffset": 0,
			"byteStride": 8,
			"componentType": 5126,
			"count": 308,
			"max": [ 1, 1 ],
			"min": [ 0, 0 ],
			"type": "VEC2"
		},
		"accessor_indices_0_CoarseBristles_1161af82-50cf-47db-9706-0c3576d43c43_0_i0": {
			"bufferView": "ushortBufferView",
			"byteOffset": 5364,
			"byteStride": 0,
			"componentType": 5123,
			"count": 462,
			"max": [ 307 ],
			"min": [ 0 ],
			"type": "SCALAR"
		}
	},
	"bufferViews": {
		"ushortBufferView": {
			"buffer": "buffer_sketch",
			"byteLength": 6288,
			"byteOffset": 0,
			"target": 34963
		},
		"vec2BufferView": {
			"buffer": "buffer_sketch",
			"byteLength": 2464,
			"byteOffset": 6288,
			"target": 34962
		},
		"vec3BufferView": {
			"buffer": "buffer_sketch",
			"byteLength": 41232,
			"byteOffset": 8752,
			"target": 34962
		},
		"vec4BufferView": {
			"buffer": "buffer_sketch",
			"byteLength": 39936,
			"byteOffset": 49984,
			"target": 34962
		}
	},
	"meshes": {
		"mesh_Lofted_d381e0f5-3def-4a0d-8853-31e9200bcbda_0_i0": {
			"name": "mesh_Lofted_d381e0f5-3def-4a0d-8853-31e9200bcbda_0_i0",
			"primitives": [
				{
					"attributes": {
						"POSITION": "accessor_position_Lofted_d381e0f5-3def-4a0d-8853-31e9200bcbda_0_i0",
						"NORMAL": "accessor_normal_Lofted_d381e0f5-3def-4a0d-8853-31e9200bcbda_0_i0",
						"COLOR": "accessor_color_Lofted_d381e0f5-3def-4a0d-8853-31e9200bcbda_0_i0",
						"TANGENT": "accessor_tangent_Lofted_d381e0f5-3def-4a0d-8853-31e9200bcbda_0_i0",
						"TEXCOORD_0": "accessor_uv0_Lofted_d381e0f5-3def-4a0d-8853-31e9200bcbda_0_i0"
					},
					"indices": "accessor_indices_0_Lofted_d381e0f5-3def-4a0d-8853-31e9200bcbda_0_i0",
					"material": "material_d381e0f5-3def-4a0d-8853-31e9200bcbda",
					"mode": 4
				}
			]
		},
		"mesh_Petal_e0abbc80-0f80-e854-4970-8924a0863dcc_0_i0": {
			"name": "mesh_Petal_e0abbc80-0f80-e854-4970-8924a0863dcc_0_i0",
			"primitives": [
				{
					"attributes": {
						"POSITION": "accessor_position_Petal_e0abbc80-0f80-e854-4970-8924a0863dcc_0_i0",
						"NORMAL": "accessor_normal_Petal_e0abbc80-0f80-e854-4970-8924a0863dcc_0_i0",
						"COLOR": "accessor_color_Petal_e0abbc80-0f80-e854-4970-8924a0863dcc_0_i0",
						"TANGENT": "accessor_tangent_Petal_e0abbc80-0f80-e854-4970-8924a0863dcc_0_i0",
						"TEXCOORD_0": "accessor_uv0_Petal_e0abbc80-0f80-e854-4970-8924a0863dcc_0_i0"
					},
					"indices": "accessor_indices_0_Petal_e0abbc80-0f80-e854-4970-8924a0863dcc_0_i0",
					"material": "material_e0abbc80-0f80-e854-4970-8924a0863dcc",
					"mode": 4
				}
			]
		},
		"mesh_CoarseBristles_1161af82-50cf-47db-9706-0c3576d43c43_0_i0": {
			"name": "mesh_CoarseBristles_1161af82-50cf-47db-9706-0c3576d43c43_0_i0",
			"primitives": [
				{
					"attributes": {
						"POSITION": "accessor_position_CoarseBristles_1161af82-50cf-47db-9706-0c3576d43c43_0_i0",
						"NORMAL": "accessor_normal_CoarseBristles_1161af82-50cf-47db-9706-0c3576d43c43_0_i0",
						"COLOR": "accessor_color_CoarseBristles_1161af82-50cf-47db-9706-0c3576d43c43_0_i0",
						"TANGENT": "accessor_tangent_CoarseBristles_1161af82-50cf-47db-9706-0c3576d43c43_0_i0",
						"TEXCOORD_0": "accessor_uv0_CoarseBristles_1161af82-50cf-47db-9706-0c3576d43c43_0_i0"
					},
					"indices": "accessor_indices_0_CoarseBristles_1161af82-50cf-47db-9706-0c3576d43c43_0_i0",
					"material": "material_1161af82-50cf-47db-9706-0c3576d43c43",
					"mode": 4
				}
			]
		}
	},
	"shaders": {
		"vertex_d381e0f5-3def-4a0d-8853-31e9200bcbda": {
			"type": 35633,
			"uri": "https://www.tiltbrush.com/shaders/brushes/Lofted-d381e0f5-3def-4a0d-8853-31e9200bcbda/Lofted-d381e0f5-3def-4a0d-8853-31e9200bcbda-v10.0-vertex.glsl"
		},
		"fragment_d381e0f5-3def-4a0d-8853-31e9200bcbda": {
			"type": 35632,
			"uri": "https://www.tiltbrush.com/shaders/brushes/Lofted-d381e0f5-3def-4a0d-8853-31e9200bcbda/Lofted-d381e0f5-3def-4a0d-8853-31e9200bcbda-v10.0-fragment.glsl"
		},
		"vertex_e0abbc80-0f80-e854-4970-8924a0863dcc": {
			"type": 35633,
			"uri": "https://www.tiltbrush.com/shaders/brushes/Petal-e0abbc80-0f80-e854-4970-8924a0863dcc/Petal-e0abbc80-0f80-e854-4970-8924a0863dcc-v10.0-vertex.glsl"
		},
		"fragment_e0abbc80-0f80-e854-4970-8924a0863dcc": {
			"type": 35632,
			"uri": "https://www.tiltbrush.com/shaders/brushes/Petal-e0abbc80-0f80-e854-4970-8924a0863dcc/Petal-e0abbc80-0f80-e854-4970-8924a0863dcc-v10.0-fragment.glsl"
		},
		"vertex_1161af82-50cf-47db-9706-0c3576d43c43": {
			"type": 35633,
			"uri": "https://www.tiltbrush.com/shaders/brushes/CoarseBristles-1161af82-50cf-47db-9706-0c3576d43c43/CoarseBristles-1161af82-50cf-47db-9706-0c3576d43c43-v10.0-vertex.glsl"
		},
		"fragment_1161af82-50cf-47db-9706-0c3576d43c43": {
			"type": 35632,
			"uri": "https://www.tiltbrush.com/shaders/brushes/CoarseBristles-1161af82-50cf-47db-9706-0c3576d43c43/CoarseBristles-1161af82-50cf-47db-9706-0c3576d43c43-v10.0-fragment.glsl"
		}
	},
	"programs": {
		"program_d381e0f5-3def-4a0d-8853-31e9200bcbda": {
			"attributes": [
				"a_position",
				"a_normal",
				"a_color",
				"a_tangent",
				"a_texcoord0"
			],
			"vertexShader": "vertex_d381e0f5-3def-4a0d-8853-31e9200bcbda",
			"fragmentShader": "fragment_d381e0f5-3def-4a0d-8853-31e9200bcbda"
		},
		"program_e0abbc80-0f80-e854-4970-8924a0863dcc": {
			"attributes": [
				"a_position",
				"a_normal",
				"a_color",
				"a_tangent",
				"a_texcoord0"
			],
			"vertexShader": "vertex_e0abbc80-0f80-e854-4970-8924a0863dcc",
			"fragmentShader": "fragment_e0abbc80-0f80-e854-4970-8924a0863dcc"
		},
		"program_1161af82-50cf-47db-9706-0c3576d43c43": {
			"attributes": [
				"a_position",
				"a_normal",
				"a_color",
				"a_tangent",
				"a_texcoord0"
			],
			"vertexShader": "vertex_1161af82-50cf-47db-9706-0c3576d43c43",
			"fragmentShader": "fragment_1161af82-50cf-47db-9706-0c3576d43c43"
		}
	},
	"techniques": {
		"technique_d381e0f5-3def-4a0d-8853-31e9200bcbda": {
			"program": "program_d381e0f5-3def-4a0d-8853-31e9200bcbda",
			"parameters": {
				"position": {
					"type": 35665,
					"semantic": "POSITION"
				},
				"normal": {
					"type": 35665,
					"semantic": "NORMAL"
				},
				"color": {
					"type": 35666,
					"semantic": "COLOR"
				},
				"tangent": {
					"type": 35666,
					"semantic": "TANGENT"
				},
				"texcoord0": {
					"type": 35665,
					"semantic": "TEXCOORD_0"
				},
				"modelViewMatrix": {
					"type": 35676,
					"semantic": "MODELVIEW"
				},
				"projectionMatrix": {
					"type": 35676,
					"semantic": "PROJECTION"
				},
				"normalMatrix": {
					"type": 35675,
					"semantic": "MODELVIEWINVERSETRANSPOSE"
				},
				"SceneLight_0_matrix": {
					"type": 35676,
					"semantic": "MODELVIEW",
					"node": "node_SceneLight_0_i1"
				},
				"SceneLight_0_color": {
					"type": 35666,
					"node": "node_SceneLight_0_i1"
				},
				"SceneLight_1_matrix": {
					"type": 35676,
					"semantic": "MODELVIEW",
					"node": "node_SceneLight_1_i2"
				},
				"SceneLight_1_color": {
					"type": 35666,
					"node": "node_SceneLight_1_i2"
				},
				"ambient_light_color": {
					"type": 35666
				},
				"Color": {
					"type": 35666
				}
			},
			"attributes": {
				"a_position": "position",
				"a_normal": "normal",
				"a_color": "color",
				"a_tangent": "tangent",
				"a_texcoord0": "texcoord0"
			},
			"uniforms": {
				"u_modelViewMatrix": "modelViewMatrix",
				"u_projectionMatrix": "projectionMatrix",
				"u_normalMatrix": "normalMatrix",
				"u_SceneLight_0_matrix": "SceneLight_0_matrix",
				"u_SceneLight_0_color": "SceneLight_0_color",
				"u_SceneLight_1_matrix": "SceneLight_1_matrix",
				"u_SceneLight_1_color": "SceneLight_1_color",
				"u_ambient_light_color": "ambient_light_color",
				"u_Color": "Color"
			},
			"states": {
				"enable": [
					2929,
					2884
				],
				"functions": {
					"depthMask": [true]
				}
			}
		},
		"technique_e0abbc80-0f80-e854-4970-8924a0863dcc": {
			"program": "program_e0abbc80-0f80-e854-4970-8924a0863dcc",
			"parameters": {
				"position": {
					"type": 35665,
					"semantic": "POSITION"
				},
				"normal": {
					"type": 35665,
					"semantic": "NORMAL"
				},
				"color": {
					"type": 35666,
					"semantic": "COLOR"
				},
				"tangent": {
					"type": 35666,
					"semantic": "TANGENT"
				},
				"texcoord0": {
					"type": 35665,
					"semantic": "TEXCOORD_0"
				},
				"modelViewMatrix": {
					"type": 35676,
					"semantic": "MODELVIEW"
				},
				"projectionMatrix": {
					"type": 35676,
					"semantic": "PROJECTION"
				},
				"normalMatrix": {
					"type": 35675,
					"semantic": "MODELVIEWINVERSETRANSPOSE"
				},
				"SceneLight_0_matrix": {
					"type": 35676,
					"semantic": "MODELVIEW",
					"node": "node_SceneLight_0_i1"
				},
				"SceneLight_0_color": {
					"type": 35666,
					"node": "node_SceneLight_0_i1"
				},
				"SceneLight_1_matrix": {
					"type": 35676,
					"semantic": "MODELVIEW",
					"node": "node_SceneLight_1_i2"
				},
				"SceneLight_1_color": {
					"type": 35666,
					"node": "node_SceneLight_1_i2"
				},
				"ambient_light_color": {
					"type": 35666
				},
				"Shininess": {
					"type": 5126
				},
				"SpecColor": {
					"type": 35666
				}
			},
			"attributes": {
				"a_position": "position",
				"a_normal": "normal",
				"a_color": "color",
				"a_tangent": "tangent",
				"a_texcoord0": "texcoord0"
			},
			"uniforms": {
				"u_modelViewMatrix": "modelViewMatrix",
				"u_projectionMatrix": "projectionMatrix",
				"u_normalMatrix": "normalMatrix",
				"u_SceneLight_0_matrix": "SceneLight_0_matrix",
				"u_SceneLight_0_color": "SceneLight_0_color",
				"u_SceneLight_1_matrix": "SceneLight_1_matrix",
				"u_SceneLight_1_color": "SceneLight_1_color",
				"u_ambient_light_color": "ambient_light_color",
				"u_Shininess": "Shininess",
				"u_SpecColor": "SpecColor"
			},
			"states": {
				"enable": [
					2929
				],
				"functions": {
					"depthMask": [true]
				}
			}
		},
		"technique_1161af82-50cf-47db-9706-0c3576d43c43": {
			"program": "program_1161af82-50cf-47db-9706-0c3576d43c43",
			"parameters": {
				"position": {
					"type": 35665,
					"semantic": "POSITION"
				},
				"normal": {
					"type": 35665,
					"semantic": "NORMAL"
				},
				"color": {
					"type": 35666,
					"semantic": "COLOR"
				},
				"tangent": {
					"type": 35666,
					"semantic": "TANGENT"
				},
				"texcoord0": {
					"type": 35664,
					"semantic": "TEXCOORD_0"
				},
				"modelViewMatrix": {
					"type": 35676,
					"semantic": "MODELVIEW"
				},
				"projectionMatrix": {
					"type": 35676,
					"semantic": "PROJECTION"
				},
				"normalMatrix": {
					"type": 35675,
					"semantic": "MODELVIEWINVERSETRANSPOSE"
				},
				"SceneLight_0_matrix": {
					"type": 35676,
					"semantic": "MODELVIEW",
					"node": "node_SceneLight_0_i1"
				},
				"SceneLight_0_color": {
					"type": 35666,
					"node": "node_SceneLight_0_i1"
				},
				"SceneLight_1_matrix": {
					"type": 35676,
					"semantic": "MODELVIEW",
					"node": "node_SceneLight_1_i2"
				},
				"SceneLight_1_color": {
					"type": 35666,
					"node": "node_SceneLight_1_i2"
				},
				"ambient_light_color": {
					"type": 35666
				},
				"Cutoff": {
					"type": 5126
				},
				"Color": {
					"type": 35666
				},
				"MainTex_TexelSize": {
					"type": 35666
				},
				"MainTex": {
					"type": 35678
				}
			},
			"attributes": {
				"a_position": "position",
				"a_normal": "normal",
				"a_color": "color",
				"a_tangent": "tangent",
				"a_texcoord0": "texcoord0"
			},
			"uniforms": {
				"u_modelViewMatrix": "modelViewMatrix",
				"u_projectionMatrix": "projectionMatrix",
				"u_normalMatrix": "normalMatrix",
				"u_SceneLight_0_matrix": "SceneLight_0_matrix",
				"u_SceneLight_0_color": "SceneLight_0_color",
				"u_SceneLight_1_matrix": "SceneLight_1_matrix",
				"u_SceneLight_1_color": "SceneLight_1_color",
				"u_ambient_light_color": "ambient_light_color",
				"u_Cutoff": "Cutoff",
				"u_Color": "Color",
				"u_MainTex_TexelSize": "MainTex_TexelSize",
				"u_MainTex": "MainTex"
			},
			"states": {
				"enable": [
					2929
				],
				"functions": {
					"depthMask": [true]
				}
			}
		}
	},
	"samplers": {
		"sampler_LINEAR_LINEAR_MIPMAP_LINEAR_REPEAT": {
			"magFilter": 9729,
			"minFilter": 9987,
			"wrapS": 10497,
			"wrapT": 10497
		}
	},
	"textures": {
		"texture_1161af82-50cf-47db-9706-0c3576d43c43_MainTex": {
			"format": 6408,
			"internalFormat": 6408,
			"sampler": "sampler_LINEAR_LINEAR_MIPMAP_LINEAR_REPEAT",
			"source": "image_1161af82-50cf-47db-9706-0c3576d43c43_MainTex",
			"target": 3553,
			"type": 5121
		}
	},
	"images": {
		"image_1161af82-50cf-47db-9706-0c3576d43c43_MainTex": {
			"uri": "https://www.tiltbrush.com/shaders/brushes/CoarseBristles-1161af82-50cf-47db-9706-0c3576d43c43/CoarseBristles-1161af82-50cf-47db-9706-0c3576d43c43-v10.0-MainTex.png"
		}
	},
	"materials": {
		"material_d381e0f5-3def-4a0d-8853-31e9200bcbda": {
			"technique": "technique_d381e0f5-3def-4a0d-8853-31e9200bcbda",
			"values": {
				"SceneLight_0_color": [0.7780392, 0.8156863, 0.9913726, 1],
				"SceneLight_1_color": [0.4282353, 0.4211765, 0.3458824, 1],
				"ambient_light_color": [0.3921569, 0.3921569, 0.3921569, 1],
				"Color": [1, 1, 1, 1]
			},
			"name": "material_d381e0f5-3def-4a0d-8853-31e9200bcbda"
		},
		"material_e0abbc80-0f80-e854-4970-8924a0863dcc": {
			"technique": "technique_e0abbc80-0f80-e854-4970-8924a0863dcc",
			"values": {
				"SceneLight_0_color": [0.7780392, 0.8156863, 0.9913726, 1],
				"SceneLight_1_color": [0.4282353, 0.4211765, 0.3458824, 1],
				"ambient_light_color": [0.3921569, 0.3921569, 0.3921569, 1],
				"Shininess": 0.01,
				"SpecColor": [0, 0, 0, 0]
			},
			"name": "material_e0abbc80-0f80-e854-4970-8924a0863dcc"
		},
		"material_1161af82-50cf-47db-9706-0c3576d43c43": {
			"technique": "technique_1161af82-50cf-47db-9706-0c3576d43c43",
			"values": {
				"SceneLight_0_color": [0.7780392, 0.8156863, 0.9913726, 1],
				"SceneLight_1_color": [0.4282353, 0.4211765, 0.3458824, 1],
				"ambient_light_color": [0.3921569, 0.3921569, 0.3921569, 1],
				"Cutoff": 0.25,
				"Color": [1, 1, 1, 1],
				"MainTex_TexelSize": [0.001953125, 0.001953125, 512, 512],
				"MainTex": "texture_1161af82-50cf-47db-9706-0c3576d43c43_MainTex"
			},
			"name": "material_1161af82-50cf-47db-9706-0c3576d43c43"
		}
	},
	"nodes": {
		"node_Lofted_d381e0f5-3def-4a0d-8853-31e9200bcbda_0_i0": {
			"name": "node_Lofted_d381e0f5-3def-4a0d-8853-31e9200bcbda_0_i0",
			"meshes": [
				"mesh_Lofted_d381e0f5-3def-4a0d-8853-31e9200bcbda_0_i0"
			],
			"matrix": [1, 0, 0, 0, 0, 1, 0, 0, 0, 0, 1, 0, 0, 0, 0, 1]
		},
		"node_SceneLight_0_i1": {
			"name": "node_SceneLight_0_i1",
			"light": "SceneLight_0",
			"matrix": [0.898794, 0.2191856, -0.3796406, 0, -0.4383712, 0.449397, -0.7783785, 0, -1.490116E-08, 0.8660254, 0.4999999, 0, 0, 0.021875, 0.05458749, 1]
		},
		"node_SceneLight_1_i2": {
			"name": "node_SceneLight_1_i2",
			"light": "SceneLight_1",
			"matrix": [0.7660446, -0.4924039, -0.4131757, 0, -0.6427875, -0.5868244, -0.4924039, 0, 2.980232E-08, 0.6427875, -0.7660447, 0, 0, 0.021875, 0.05458749, 1]
		},
		"node_Petal_e0abbc80-0f80-e854-4970-8924a0863dcc_0_i0": {
			"name": "node_Petal_e0abbc80-0f80-e854-4970-8924a0863dcc_0_i0",
			"meshes": [
				"mesh_Petal_e0abbc80-0f80-e854-4970-8924a0863dcc_0_i0"
			],
			"matrix": [1, 0, 0, 0, 0, 1, 0, 0, 0, 0, 1, 0, 0, 0, 0, 1]
		},
		"node_CoarseBristles_1161af82-50cf-47db-9706-0c3576d43c43_0_i0": {
			"name": "node_CoarseBristles_1161af82-50cf-47db-9706-0c3576d43c43_0_i0",
			"meshes": [
				"mesh_CoarseBristles_1161af82-50cf-47db-9706-0c3576d43c43_0_i0"
			],
			"matrix": [1, 0, 0, 0, 0, 1, 0, 0, 0, 0, 1, 0, 0, 0, 0, 1]
		}
	},
	"scene": "defaultScene",
	"scenes": {
		"defaultScene": {
			"nodes": [
				"node_Lofted_d381e0f5-3def-4a0d-8853-31e9200bcbda_0_i0",
				"node_SceneLight_0_i1",
				"node_SceneLight_1_i2",
				"node_Petal_e0abbc80-0f80-e854-4970-8924a0863dcc_0_i0",
				"node_CoarseBristles_1161af82-50cf-47db-9706-0c3576d43c43_0_i0"
			],
			"extras": {
				"TB_EnvironmentGuid": "ab080599-e465-4a6d-8587-43bf495af68b",
				"TB_Environment": "Standard",
				"TB_UseGradient": "true",
				"TB_SkyColorA": "0.2745098, 0.2745098, 0.3176471",
				"TB_SkyColorB": "0.03529412, 0.03529412, 0.08627451",
				"TB_SkyGradientDirection": "0, 1, 0",
				"TB_FogColor": "0.1647059, 0.1647059, 0.2078431",
				"TB_FogDensity": "0.0025",
				"TB_SkyColorHorizon": "0.2745098, 0.2745098, 0.3176471",
				"TB_SkyColorZenith": "0.03529412, 0.03529412, 0.08627451"
			}
		}
	}
}