{
	"asset": {
		"generator": "Tilt Brush 22.3.bfe37158d",
		"version": "1.1",
		"copyright": "Unknown."
	},
	"buffers": {
		"buffer_sketch": {
			"byteLength": 29344,
			"type": "arraybuffer",
			"uri": "sketch.bin"
		}
	},
	"accessors": {
		"accessor_position_DoubleTaperedMarker_0d3889f3-3ede-470c-8af4-de4813306126_0_i0": {
			"bufferView": "vec3BufferView",
			"byteOffset": 0,
			"byteStride": 12,
			"componentType": 5126,
			"count": 358,
			"max": [ 0.51682806, 2.18046069, 0.722556293 ],
			"min": [ -0.75123924, 0.00870084483, -0.0236520898 ],
			"type": "VEC3"
		},
		"accessor_normal_DoubleTaperedMarker_0d3889f3-3ede-470c-8af4-de4813306126_0_i0": {
			"bufferView": "vec3BufferView",
			"byteOffset": 4296,
			"byteStride": 12,
			"componentType": 5126,
			"count": 358,
			"max": [ 0.78850776, 0.542992532, 0.99854666 ],
			"min": [ -0.0252134223, -0.608935833, 0.41764769 ],
			"type": "VEC3"
		},
		"accessor_color_DoubleTaperedMarker_0d3889f3-3ede-470c-8af4-de4813306126_0_i0": {
			"bufferView": "vec4BufferView",
			"byteOffset": 0,
			"byteStride": 16,
			"componentType": 5126,
			"count": 358,
			"type": "VEC4"
		},
		"accessor_tangent_DoubleTaperedMarker_0d3889f3-3ede-470c-8af4-de4813306126_0_i0": {
			"bufferView": "vec4BufferView",
			"byteOffset": 5728,
			"byteStride": 16,
			"componentType": 5126,
			"count": 358,
			"max": [ 0.849557996, 0.997497618, 0.639935136, 1 ],
			"min": [ -0.94939822, -0.999850452, -0.349419057, 1 ],
			"type": "VEC4"
		},
		"accessor_uv0_DoubleTaperedMarker_0d3889f3-3ede-470c-8af4-de4813306126_0_i0": {
			"bufferView": "vec2BufferView",
			"byteOffset": 0,
			"byteStride": 8,
			"componentType": 5126,
			"count": 358,
			"max": [ 1, 1 ],
			"min": [ 0, 0 ],
			"type": "VEC2"
		},
		"accessor_uv1_DoubleTaperedMarker_0d3889f3-3ede-470c-8af4-de4813306126_0_i0": {
			"bufferView": "vec3BufferView",
			"byteOffset": 8592,
			"byteStride": 12,
			"componentType": 5126,
			"count": 358,
			"max": [ 0.0496399142, 0.0481519848, 0.0448639169 ],
			"min": [ -0.0496399142, -0.0481519848, -0.0448639169 ],
			"type": "VEC3"
		},
		"accessor_indices_0_DoubleTaperedMarker_0d3889f3-3ede-470c-8af4-de4813306126_0_i0": {
			"bufferView": "ushortBufferView",
			"byteOffset": 0,
			"byteStride": 0,
			"componentType": 5123,
			"count": 1068,
			"max": [ 357 ],
			"min": [ 0 ],
			"type": "SCALAR"
		}
	},
	"bufferViews": {
		"ushortBufferView": {
			"buffer": "buffer_sketch",
			"byteLength": 2136,
			"byteOffset": 0,
			"target": 34963
		},
		"vec2BufferView": {
			"buffer": "buffer_sketch",
			"byteLength": 2864,
			"byteOffset": 2136,
			"target": 34962
		},
		"vec3BufferView": {
			"buffer": "buffer_sketch",
			"byteLength": 12888,
			"byteOffset": 5000,
			"target": 34962
		},
		"vec4BufferView": {
			"buffer": "buffer_sketch",
			"byteLength": 11456,
			"byteOffset": 17888,
			"target": 34962
		}
	},
	"meshes": {
		"mesh_DoubleTaperedMarker_0d3889f3-3ede-470c-8af4-de4813306126_0_i0": {
			"name": "mesh_DoubleTaperedMarker_0d3889f3-3ede-470c-8af4-de4813306126_0_i0",
			"primitives": [
				{
					"attributes": {
						"POSITION": "accessor_position_DoubleTaperedMarker_0d3889f3-3ede-470c-8af4-de4813306126_0_i0",
						"NORMAL": "accessor_normal_DoubleTaperedMarker_0d3889f3-3ede-470c-8af4-de4813306126_0_i0",
						"COLOR": "accessor_color_DoubleTaperedMarker_0d3889f3-3ede-470c-8af4-de4813306126_0_i0",
						"TANGENT": "accessor_tangent_DoubleTaperedMarker_0d3889f3-3ede-470c-8af4-de4813306126_0_i0",
						"TEXCOORD_0": "accessor_uv0_DoubleTaperedMarker_0d3889f3-3ede-470c-8af4-de4813306126_0_i0",
						"TEXCOORD_1": "accessor_uv1_DoubleTaperedMarker_0d3889f3-3ede-470c-8af4-de4813306126_0_i0"
					},
					"indices": "accessor_indices_0_DoubleTaperedMarker_0d3889f3-3ede-470c-8af4-de4813306126_0_i0",
					"material": "material_0d3889f3-3ede-470c-8af4-de4813306126",
					"mode": 4
				}
			]
		}
	},
	"shaders": {
		"vertex_0d3889f3-3ede-470c-8af4-de4813306126": {
			"type": 35633,
			"uri": "https://www.tiltbrush.com/shaders/brushes/DoubleTaperedMarker-0d3889f3-3ede-470c-8af4-de4813306126/DoubleTaperedMarker-0d3889f3-3ede-470c-8af4-de4813306126-v10.0-vertex.glsl"
		},
		"fragment_0d3889f3-3ede-470c-8af4-de4813306126": {
			"type": 35632,
			"uri": "https://www.tiltbrush.com/shaders/brushes/DoubleTaperedMarker-0d3889f3-3ede-470c-8af4-de4813306126/DoubleTaperedMarker-0d3889f3-3ede-470c-8af4-de4813306126-v10.0-fragment.glsl"
		}
	},
	"programs": {
		"program_0d3889f3-3ede-470c-8af4-de4813306126": {
			"attributes": [
				"a_position",
				"a_normal",
				"a_color",
				"a_tangent",
				"a_texcoord0",
				"a_texcoord1"
			],
			"vertexShader": "vertex_0d3889f3-3ede-470c-8af4-de4813306126",
			"fragmentShader": "fragment_0d3889f3-3ede-470c-8af4-de4813306126"
		}
	},
	"techniques": {
		"technique_0d3889f3-3ede-470c-8af4-de4813306126": {
			"program": "program_0d3889f3-3ede-470c-8af4-de4813306126",
			"parameters": {
				"position": {
					"type": 35665,
					"semantic": "POSITION"
				},
				"normal": {
					"type": 35665,
					"semantic": "NORMAL"
				},
				"color": {
					"type": 35666,
					"semantic": "COLOR"
				},
				"tangent": {
					"type": 35666,
					"semantic": "TANGENT"
				},
				"texcoord0": {
					"type": 35664,
					"semantic": "TEXCOORD_0"
				},
				"texcoord1": {
					"type": 35665,
					"semantic": "TEXCOORD_1"
				},
				"modelViewMatrix": {
					"type": 35676,
					"semantic": "MODELVIEW"
				},
				"projectionMatrix": {
					"type": 35676,
					"semantic": "PROJECTION"
				},
				"normalMatrix": {
					"type": 35675,
					"semantic": "MODELVIEWINVERSETRANSPOSE"
				},
				"SceneLight_0_matrix": {
					"type": 35676,
					"semantic": "MODELVIEW",
					"node": "node_SceneLight_0_i1"
				},
				"SceneLight_0_color": {
					"type": 35666,
					"node": "node_SceneLight_0_i1"
				},
				"SceneLight_1_matrix": {
					"type": 35676,
					"semantic": "MODELVIEW",
					"node": "node_SceneLight_1_i2"
				},
				"SceneLight_1_color": {
					"type": 35666,
					"node": "node_SceneLight_1_i2"
				},
				"ambient_light_color": {
					"type": 35666
				}
			},
			"attributes": {
				"a_position": "position",
				"a_normal": "normal",
				"a_color": "color",
				"a_tangent": "tangent",
				"a_texcoord0": "texcoord0",
				"a_texcoord1": "texcoord1"
			},
			"uniforms": {
				"u_modelViewMatrix": "modelViewMatrix",
				"u_projectionMatrix": "projectionMatrix",
				"u_normalMatrix": "normalMatrix",
				"u_SceneLight_0_matrix": "SceneLight_0_matrix",
				"u_SceneLight_0_color": "SceneLight_0_color",
				"u_SceneLight_1_matrix": "SceneLight_1_matrix",
				"u_SceneLight_1_color": "SceneLight_1_color",
				"u_ambient_light_color": "ambient_light_color"
			},
			"states": {
				"enable": [
					2929
				],
				"functions": {
					"depthMask": [true]
				}
			}
		}
	},
	"materials": {
		"material_0d3889f3-3ede-470c-8af4-de4813306126": {
			"technique": "technique_0d3889f3-3ede-470c-8af4-de4813306126",
			"values": {
				"SceneLight_0_color": [0.7780392, 0.8156863, 0.9913726, 1],
				"SceneLight_1_color": [0.4282353, 0.4211765, 0.3458824, 1],
				"ambient_light_color": [0.3921569, 0.3921569, 0.3921569, 1]
			},
			"name": "material_0d3889f3-3ede-470c-8af4-de4813306126"
		}
	},
	"nodes": {
		"node_DoubleTaperedMarker_0d3889f3-3ede-470c-8af4-de4813306126_0_i0": {
			"name": "node_DoubleTaperedMarker_0d3889f3-3ede-470c-8af4-de4813306126_0_i0",
			"meshes": [
				"mesh_DoubleTaperedMarker_0d3889f3-3ede-470c-8af4-de4813306126_0_i0"
			],
			"matrix": [1, 0, 0, 0, 0, 1, 0, 0, 0, 0, 1, 0, 0, 0, 0, 1]
		},
		"node_SceneLight_0_i1": {
			"name": "node_SceneLight_0_i1",
			"light": "SceneLight_0",
			"matrix": [0.898794, 0.2191856, -0.3796406, 0, -0.4383712, 0.449397, -0.7783785, 0, -1.490116E-08, 0.8660254, 0.4999999, 0, 0, 0.021875, 0.05458749, 1]
		},
		"node_SceneLight_1_i2": {
			"name": "node_SceneLight_1_i2",
			"light": "SceneLight_1",
			"matrix": [0.7660446, -0.4924039, -0.4131757, 0, -0.6427875, -0.5868244, -0.4924039, 0, 2.980232E-08, 0.6427875, -0.7660447, 0, 0, 0.021875, 0.05458749, 1]
		}
	},
	"scene": "defaultScene",
	"scenes": {
		"defaultScene": {
			"nodes": [
				"node_DoubleTaperedMarker_0d3889f3-3ede-470c-8af4-de4813306126_0_i0",
				"node_SceneLight_0_i1",
				"node_SceneLight_1_i2"
			],
			"extras": {
				"TB_EnvironmentGuid": "ab080599-e465-4a6d-8587-43bf495af68b",
				"TB_Environment": "Standard",
				"TB_UseGradient": "true",
				"TB_SkyColorA": "0.2745098, 0.2745098, 0.3176471",
				"TB_SkyColorB": "0.03529412, 0.03529412, 0.08627451",
				"TB_SkyGradientDirection": "0, 1, 0",
				"TB_FogColor": "0.1647059, 0.1647059, 0.2078431",
				"TB_FogDensity": "0.0025",
				"TB_SkyColorHorizon": "0.2745098, 0.2745098, 0.3176471",
				"TB_SkyColorZenith": "0.03529412, 0.03529412, 0.08627451"
			}
		}
	}
}